<svg xmlns="http://www.w3.org/2000/svg" viewBox="0 0 100 100">
  <defs>
    <linearGradient id="purple-grad" x1="0%" y1="0%" x2="100%" y2="0%">
      <stop offset="0%" style="stop-color:#9B56DA"/>
      <stop offset="100%" style="stop-color:#B47CE6"/>
    </linearGradient>
    <linearGradient id="green-grad" x1="0%" y1="0%" x2="100%" y2="0%">
      <stop offset="0%" style="stop-color:#56D24A"/>
      <stop offset="100%" style="stop-color:#7EE073"/>
    </linearGradient>
    <linearGradient id="orange-grad" x1="0%" y1="0%" x2="100%" y2="0%">
      <stop offset="0%" style="stop-color:#FFA23F"/>
      <stop offset="100%" style="stop-color:#FFB469"/>
    </linearGradient>
    <linearGradient id="blue-grad" x1="0%" y1="0%" x2="100%" y2="0%">
      <stop offset="0%" style="stop-color:#2E5BCF"/>
      <stop offset="100%" style="stop-color:#4C76DF"/>
    </linearGradient>
    <radialGradient id="highlight-glow" cx="50%" cy="50%" r="50%" fx="50%" fy="50%">
      <stop offset="0%" style="stop-color:#C7FF5F; stop-opacity:1" />
      <stop offset="100%" style="stop-color:#C7FF5F; stop-opacity:0" />
    </radialGradient>
  </defs>

  <path d="M 50 10 A 40 40 0 0 1 90 50 L 80 50 A 30 30 0 0 0 50 20 Z" fill="url(#purple-grad)" />
  <path d="M 90 50 A 40 40 0 0 1 50 90 L 50 80 A 30 30 0 0 0 80 50 Z" fill="url(#green-grad)" />
  <path d="M 50 90 A 40 40 0 0 1 10 50 L 20 50 A 30 30 0 0 0 50 80 Z" fill="url(#orange-grad)" />
  <path d="M 10 50 A 40 40 0 0 1 50 10 L 50 20 A 30 30 0 0 0 20 50 Z" fill="url(#blue-grad)" />

  <circle cx="50" cy="50" r="25" fill="none" stroke="#E0E0E0" stroke-width="2"/>
  <path d="M 50 25 L 50 75 M 25 50 L 75 50 M 50 25 A 25 25 0 0 1 50 75 M 50 25 A 25 25 0 0 0 50 75" fill="none" stroke="#E0E0E0" stroke-width="1.5" stroke-dasharray="3,3"/>
  <circle cx="50" cy="50" r="1.5" fill="#E0E0E0"/>
  <line x1="50" y1="50" x2="68" y2="32" stroke="#E0E0E0" stroke-width="2" stroke-linecap="round"/>

  <circle cx="50" cy="10" r="3" fill="url(#highlight-glow)" />
  <circle cx="50" cy="10" r="2" fill="#C7FF5F" stroke="#FFFFFF" stroke-width="0.5"/>

</svg>